<?xml version="1.0" encoding="UTF-8" standalone="no"?>
<svg
   viewBox="0 -189 1008 1008"
   version="1.1"
   id="svg4"
   sodipodi:docname="twitter.svg"
   inkscape:version="1.1.2 (b8e25be833, 2022-02-05)"
   xmlns:inkscape="http://www.inkscape.org/namespaces/inkscape"
   xmlns:sodipodi="http://sodipodi.sourceforge.net/DTD/sodipodi-0.dtd"
   xmlns:xlink="http://www.w3.org/1999/xlink"
   xmlns="http://www.w3.org/2000/svg"
   xmlns:svg="http://www.w3.org/2000/svg">
  <defs
     id="defs8">
    <linearGradient
       inkscape:collect="always"
       id="linearGradient909">
      <stop
         style="stop-color:#bc9cff;stop-opacity:1"
         offset="0"
         id="stop905" />
      <stop
         style="stop-color:#8ba4f9;stop-opacity:1"
         offset="1"
         id="stop907" />
    </linearGradient>
    <linearGradient
       inkscape:collect="always"
       xlink:href="#linearGradient909"
       id="linearGradient911"
       x1="592.99634"
       y1="-189.00368"
       x2="592.99634"
       y2="624.99792"
       gradientUnits="userSpaceOnUse" />
  </defs>
  <sodipodi:namedview
     id="namedview6"
     pagecolor="#ffffff"
     bordercolor="#666666"
     borderopacity="1.0"
     inkscape:pageshadow="2"
     inkscape:pageopacity="0.0"
     inkscape:pagecheckerboard="0"
     showgrid="false"
     inkscape:zoom="0.25"
     inkscape:cx="598"
     inkscape:cy="538"
     inkscape:window-width="1920"
     inkscape:window-height="1018"
     inkscape:window-x="-8"
     inkscape:window-y="-8"
     inkscape:window-maximized="1"
     inkscape:current-layer="svg4" />
  <path
     fill="currentColor"
     d="m 898,14 6,-8 V 36 C 904,310 695,625 315,625 199,625 90,591 0,532 c 16,2 31,2 49,2 97,0 185,-33 256,-89 -90,-2 -167,-61 -193,-143 12,2 24,4 38,4 17,0 35,-2 53,-6 C 108,280 37,197 37,97 v -2 c 28,16 59,26 93,28 C 75,85 37,22 37,-49 c 0,-37 10,-73 28,-104 102,126 256,209 427,218 -4,-15 -6,-31 -6,-47 0,-114 93,-207 207,-207 59,0 112,26 150,65 47,-9 92,-27 131,-51 -15,47 -49,87 -92,112 41,-3 81,-15 118,-31 -28,41 -63,79 -102,108 z"
     id="path2"
     style="fill-opacity:1;fill:url(#linearGradient911)" />
</svg>
