<?xml version="1.0" encoding="UTF-8" standalone="no"?>
<svg
   viewBox="-4 -189 882 1008"
   version="1.1"
   id="svg4"
   sodipodi:docname="facebook-square.svg"
   inkscape:version="1.1.2 (b8e25be833, 2022-02-05)"
   xmlns:inkscape="http://www.inkscape.org/namespaces/inkscape"
   xmlns:sodipodi="http://sodipodi.sourceforge.net/DTD/sodipodi-0.dtd"
   xmlns:xlink="http://www.w3.org/1999/xlink"
   xmlns="http://www.w3.org/2000/svg"
   xmlns:svg="http://www.w3.org/2000/svg">
  <defs
     id="defs8">
    <linearGradient
       inkscape:collect="always"
       id="linearGradient3996">
      <stop
         style="stop-color:#bc9cff;stop-opacity:1"
         offset="0"
         id="stop3994" />
      <stop
         style="stop-color:#8ba4f9;stop-opacity:1"
         offset="1"
         id="stop3992" />
    </linearGradient>
    <linearGradient
       inkscape:collect="always"
       xlink:href="#linearGradient3996"
       id="linearGradient3998"
       x1="440.00836"
       y1="-188.99274"
       x2="440.00836"
       y2="696.99609"
       gradientUnits="userSpaceOnUse" />
  </defs>
  <sodipodi:namedview
     id="namedview6"
     pagecolor="#ffffff"
     bordercolor="#666666"
     borderopacity="1.0"
     inkscape:pageshadow="2"
     inkscape:pageopacity="0.0"
     inkscape:pagecheckerboard="0"
     showgrid="false"
     inkscape:zoom="0.5"
     inkscape:cx="80"
     inkscape:cy="303"
     inkscape:window-width="1920"
     inkscape:window-height="1018"
     inkscape:window-x="-8"
     inkscape:window-y="-8"
     inkscape:window-maximized="1"
     inkscape:current-layer="svg4" />
  <path
     id="path2"
     style="fill-opacity:1;fill:url(#linearGradient3998)"
     d="m 882,-97 -10,701 c -1,52 -41,93 -92,93 H 612 V 348 H 732 L 750,215 H 614 v -85 c 0,-39 10,-65 65,-65 h 71 V -53 c -12,-2 -53,-6 -102,-6 -103,0 -172,61 -172,175 v 99 H 356 V 348 H 476 V 697 H 89 C 37,697 -4,654 -4,600 V -93 c 0,-53 43,-96 97,-96 h 693 c 53,0 97,41 96,92 z" />
</svg>
