<?xml version="1.0" encoding="UTF-8" standalone="no"?>
<svg
   viewBox="-5 -189 882 1008"
   version="1.1"
   id="svg4"
   sodipodi:docname="instagram.svg"
   inkscape:version="1.1.2 (b8e25be833, 2022-02-05)"
   xmlns:inkscape="http://www.inkscape.org/namespaces/inkscape"
   xmlns:sodipodi="http://sodipodi.sourceforge.net/DTD/sodipodi-0.dtd"
   xmlns:xlink="http://www.w3.org/1999/xlink"
   xmlns="http://www.w3.org/2000/svg"
   xmlns:svg="http://www.w3.org/2000/svg">
  <defs
     id="defs8">
    <linearGradient
       inkscape:collect="always"
       id="linearGradient829">
      <stop
         style="stop-color:#bc9cff;stop-opacity:1"
         offset="0"
         id="stop825" />
      <stop
         style="stop-color:#8ba4f9;stop-opacity:1"
         offset="1"
         id="stop827" />
    </linearGradient>
    <linearGradient
       inkscape:collect="always"
       xlink:href="#linearGradient829"
       id="linearGradient831"
       x1="436.00711"
       y1="-188.99289"
       x2="436.00711"
       y2="692.99756"
       gradientUnits="userSpaceOnUse" />
  </defs>
  <sodipodi:namedview
     id="namedview6"
     pagecolor="#ffffff"
     bordercolor="#666666"
     borderopacity="1.0"
     inkscape:pageshadow="2"
     inkscape:pageopacity="0.0"
     inkscape:pagecheckerboard="0"
     showgrid="false"
     inkscape:zoom="0.5"
     inkscape:cx="-173"
     inkscape:cy="467"
     inkscape:window-width="1920"
     inkscape:window-height="1018"
     inkscape:window-x="-8"
     inkscape:window-y="-8"
     inkscape:window-maximized="1"
     inkscape:current-layer="svg4" />
  <path
     fill="currentColor"
     d="m 780,513 -2,2 c 23,-57 17,-195 17,-260 0,-65 6,-203 -17,-262 -16,-39 -46,-69 -85,-85 -57,-23 -195,-17 -260,-17 -65,0 -203,-6 -260,17 -39,16 -68,46 -84,85 -24,57 -18,195 -18,260 0,65 -6,203 18,260 16,39 45,68 84,84 57,24 195,18 260,18 65,0 203,6 262,-18 39,-15 69,-45 85,-84 z M 874,70 c 4,73 4,291 0,364 -4,71 -20,134 -71,185 -51,51 -114,67 -185,71 -73,4 -291,4 -364,0 C 183,686 120,670 69,619 18,568 2,505 -2,434 -6,361 -6,143 -2,70 2,-1 18,-64 69,-115 c 51,-51 114,-67 185,-71 73,-4 291,-4 364,0 71,4 134,20 185,71 51,51 67,114 71,185 z M 725,17 c 0,29 -24,53 -54,53 -29,0 -53,-24 -53,-53 0,-30 24,-54 53,-54 30,0 54,24 54,54 z m -284,378 -4,4 c 81,0 148,-67 148,-148 0,-81 -65,-148 -146,-148 -81,0 -146,65 -146,146 0,81 67,146 148,146 z M 441,21 C 567,21 667,121 667,247 667,373 567,473 441,473 315,473 215,373 215,247 215,121 315,21 441,21 Z"
     id="path2"
     style="fill-opacity:1;fill:url(#linearGradient831)" />
</svg>
