<?xml version="1.0" standalone="no"?>
<!DOCTYPE svg PUBLIC "-//W3C//DTD SVG 20010904//EN"
 "http://www.w3.org/TR/2001/REC-SVG-20010904/DTD/svg10.dtd">
<svg version="1.0" xmlns="http://www.w3.org/2000/svg"
 width="700.000000pt" height="700.000000pt" viewBox="0 0 700.000000 700.000000"
 preserveAspectRatio="xMidYMid meet">
<metadata>
Created by potrace 1.14, written by Peter Selinger 2001-2017
</metadata>
<g transform="translate(0.000000,700.000000) scale(0.100000,-0.100000)"
fill="#000000" stroke="none">
<path d="M3278 6996 c-1 -2 -42 -6 -89 -10 -47 -4 -95 -8 -105 -10 -10 -2 -46
-7 -79 -12 -33 -4 -62 -8 -65 -9 -3 0 -27 -4 -55 -9 -87 -13 -326 -73 -445
-111 -849 -273 -1561 -855 -1994 -1629 -153 -274 -278 -586 -342 -856 -13 -59
-54 -252 -58 -282 -3 -21 -8 -53 -11 -71 -21 -127 -30 -286 -30 -502 0 -195 6
-312 20 -409 3 -17 7 -49 9 -71 10 -83 18 -131 26 -165 5 -19 12 -48 14 -65
53 -294 196 -677 374 -994 121 -217 342 -524 466 -647 12 -11 35 -36 52 -55
31 -35 163 -162 244 -234 115 -104 370 -286 540 -385 246 -144 631 -302 865
-356 6 -1 48 -11 95 -22 108 -26 200 -44 299 -58 25 -3 57 -8 71 -10 163 -25
682 -25 842 1 13 2 46 7 73 10 74 11 87 13 120 19 17 4 46 9 65 12 132 21 515
137 651 197 30 13 74 32 99 43 25 10 96 45 159 77 379 193 706 444 1011 777
206 224 419 542 554 825 110 231 219 541 262 750 16 75 54 300 60 350 4 33 9
76 11 95 8 70 10 517 3 595 -15 159 -21 210 -25 225 -2 8 -7 35 -10 60 -13
100 -71 348 -107 460 -108 338 -229 597 -413 885 -42 65 -190 269 -229 313
-13 15 -43 50 -66 77 -23 28 -66 75 -95 105 -347 363 -728 628 -1181 823 -243
104 -557 195 -804 232 -25 4 -54 9 -65 11 -10 2 -49 6 -85 10 -36 3 -78 8 -95
11 -33 5 -531 13 -537 9z m502 -420 c19 -2 60 -8 90 -11 322 -34 688 -144 999
-299 162 -81 183 -93 321 -183 199 -131 314 -226 505 -417 398 -401 666 -877
804 -1434 26 -104 58 -271 66 -342 25 -240 26 -618 1 -755 -2 -11 -7 -46 -11
-79 -28 -233 -128 -580 -230 -801 -69 -150 -81 -173 -138 -275 -93 -164 -243
-377 -356 -505 -87 -97 -304 -307 -391 -376 -287 -230 -589 -397 -932 -518
-85 -29 -254 -78 -306 -87 -14 -3 -28 -7 -32 -9 -5 -3 -144 -29 -225 -41 -132
-21 -267 -29 -455 -29 -183 1 -319 10 -440 30 -14 2 -56 9 -95 15 -462 76
-982 311 -1370 619 -106 84 -139 114 -280 256 -385 387 -647 845 -793 1385
-22 79 -56 252 -67 333 -4 27 -8 57 -10 67 -26 134 -26 556 0 760 30 243 100
517 187 740 112 287 274 566 477 820 98 123 340 365 461 461 409 326 883 545
1370 633 165 30 174 31 315 42 50 4 92 8 93 10 6 4 404 -4 442 -10z"/>
<path d="M1802 4249 c-119 -60 -149 -229 -58 -321 50 -50 98 -65 226 -72 63
-3 126 -8 140 -11 14 -3 41 -8 60 -11 63 -11 204 -54 280 -86 363 -154 629
-427 791 -813 48 -115 84 -296 94 -469 3 -59 12 -113 21 -132 82 -172 335
-150 383 33 11 39 9 155 -5 278 -15 146 -78 377 -135 503 -16 34 -29 65 -29
68 0 19 -160 279 -205 333 -107 129 -169 194 -287 298 -61 54 -218 158 -318
211 -128 67 -252 115 -395 152 -155 40 -222 50 -385 56 -125 5 -138 4 -178
-17z"/>
<path d="M5040 4259 c-25 -3 -63 -9 -86 -12 -76 -11 -241 -55 -340 -92 -248
-93 -484 -246 -667 -433 l-77 -80 46 -78 c41 -68 119 -225 150 -303 10 -24 11
-24 44 25 57 83 238 255 339 322 226 151 470 234 726 248 116 6 182 23 223 58
53 46 80 144 59 214 -15 48 -71 107 -118 126 -44 18 -203 20 -299 5z"/>
</g>
</svg>
